<svg version="1" xmlns="http://www.w3.org/2000/svg" width="346.667" height="346.667" viewBox="0 0 260.000000 260.000000"><path d="M138.1 4.1c-7.9 3.1-16 13.7-18.2 23.6-.7 2.9-1.6 5.3-2 5.3-1.6 0-2-8.6-.8-16.2 1.3-8 1.3-8.1-1-9.9-2.8-2.3-4-2.4-6.8-.4s-4.3 8.7-4.3 19.8v9.4l-3.9 1.2c-2.2.6-6.5 2.5-9.5 4.1-3.1 1.6-5.6 2.6-5.6 2.2-.1-.4-.5-5.2-1-10.6-.7-8.5-1.3-10.5-3.7-13.9-9.7-13.8-32.5-10.5-51.8 7.5-21.4 20-26.2 46.3-10.2 56.2 4.3 2.6 5.3 2.8 16.1 3 6.3 0 11.7.4 12.1.7.3.4-2.7 5.8-6.6 12.1-6.6 10.5-7.7 11.7-12.8 14.4C21.6 116 9.9 127.1 4.7 135c-5.5 8.1-4.8 13 1.9 13 2.8 0 3.8-.8 7.7-6.3 2.5-3.4 6.4-8 8.7-10.2l4.2-4-.5 3c-.3 1.6-.9 5.4-1.3 8.4-.5 4-1.7 7-4.5 11.2-4.4 6.3-10.6 19.3-11.5 23.8-.5 2.1-.1 3.4 1.5 5 4.2 4.2 8 2.2 11.1-5.7 1.1-2.9 2.9-7.1 4.1-9.4l2.1-4 2.4 5.3 2.5 5.4-4 7.5c-4 7.5-7.4 18.2-8.7 27.3-.7 5.4 1.2 8.7 5.1 8.7 4.1 0 5.5-2.2 7.4-11.7 1.8-8.4 6.6-21.3 8-21.3.3 0 3.8 2.7 7.6 6.1 7.5 6.5 12.8 9.6 21.3 12.4 6 1.9 5.9 1.7 1.6 11.4-8.3 18.5 4.7 35.9 31.7 42.5 14 3.4 35.8 3.9 48.6 1 13.8-3 27.7-10.1 32.5-16.5 6.6-8.8 7.8-18.1 3.4-26.7-4.3-8.6-4.2-9 4.4-12.1 9.4-3.3 15.2-6.7 21.7-12.5l5-4.6 2.8 6.1c1.5 3.4 3.4 9.8 4.3 14.3 1.6 8.6 3.3 11.6 6.4 11.6 2.6 0 5.4-1.6 6.2-3.5 1.5-4.1-4.9-27.1-9.8-34.5l-2.3-3.5 2.5-5.5 2.5-5.5 3.4 7.5c4.7 10.3 4.7 10.4 7.6 11.4 3.4 1.2 6.7-1.5 6.7-5.4 0-4.2-6.7-19.2-11.4-25.5-1.8-2.3-2.5-5-3-11.2-.3-4.5-.9-9-1.2-10-.6-1.7 10.6 9.3 15.3 15 3.7 4.6 10.3 2.8 10.3-2.9 0-5.6-15.2-21.6-26.6-28-5.8-3.2-6.4-3.9-13.2-15.9-4-7-7.2-12.8-7.2-13 0-.2 5.1-.5 11.4-.7 10.8-.3 11.7-.5 15.7-3.3 6-4.3 8.4-9.4 8.4-18-.1-8.9-2.4-15.6-8.6-25-6.8-10.1-16.4-18.7-26.6-23.7-7.3-3.6-9.4-4.2-16.6-4.6-7.2-.3-8.7-.1-12.7 2-6.9 3.8-10.1 9.6-10.7 20-.6 11.5-.4 11.1-6 8.9-2.6-1-8.1-2.7-12.2-3.7l-7.5-1.8 4.7-4.2c2.5-2.3 5.9-4.5 7.4-4.9 6.2-1.5 8.2-6.6 4.2-10.6-2.4-2.4-4.6-2.1-11.9 1.4-5.5 2.6-14.7 11.5-15.6 15.1-.7 2.8-4.4 3.7-4.4 1.1 0-5 5.5-12.8 11.8-16.7 2.6-1.6 3.2-2.6 3.2-5.3 0-2.4-.7-3.9-2.2-4.9-2.6-1.8-2.5-1.8-5.7-.5zm68.2 16.2c16.9 7.8 30.6 25.2 31.5 39.8.4 6.2.2 6.8-2.6 10l-3 3.4-13.9.6c-14.7.6-17.1 1.2-23.9 6.1-3.3 2.3-4.4 3.8-4.4 5.8 0 5 3.9 6.5 8.3 3 1.4-1.1 2.9-2 3.4-2 .9 0 13 20.2 17.1 28.5 3.7 7.5 6.2 17.5 6.2 24.9 0 14.8-5.1 26.5-16.1 37.2-8.1 7.8-10.9 9.5-21 12.9l-6.7 2.3-3.2-10c-1.7-5.5-2.9-10.2-2.7-10.5.3-.2 2.3.7 4.6 2.1 2.2 1.4 4.9 2.6 6 2.6 2.8 0 5.1-2.7 5.1-6 0-3.5-3.2-6.1-14-11.8-8.4-4.4-6.6-1-15.5-29.5-4.1-13-5-14.9-7.2-15.8-2.7-1-6.9.8-7.9 3.6-.3.7 4.7 18.3 11.2 38.9 6.4 20.7 11.5 37.8 11.3 38.1-.3.2-2.8-.4-5.5-1.4-18.2-6.9-48-7-68-.1-3.1 1.1-5.8 1.9-6 1.7-.1-.1 4.7-17.1 10.7-37.7 6-20.6 10.9-38 10.9-38.7 0-.6-1.2-2.1-2.7-3.2-2.7-2.2-5.9-2.1-7.8.4-.6.6-3.7 10.6-7 22l-6 20.8-4.4 2.6c-2.4 1.4-7 4.5-10.2 6.8-4.9 3.6-5.9 4.8-5.9 7.2 0 2 .8 3.5 2.2 4.5 3.1 2.2 4.9 2 8.8-.9 1.8-1.4 3.5-2.3 3.7-2.1.4.4-3.5 14.7-4.1 15.4-.8.8-12.9-4.4-17.2-7.3-6.8-4.7-17.6-16-20.3-21.2-5-10-6.4-22.9-3.6-33.8 2.2-8.4 5.5-15.2 13.7-28.1 6.8-10.8 7.2-11.3 9.2-9.9 4.4 3.1 9.4.8 8.2-3.8-.6-2.4-7.4-7.9-12.2-9.8-1.6-.6-9.1-1.4-16.6-1.8-13.3-.6-13.9-.7-16.5-3.4-2.5-2.4-2.8-3.5-2.8-9.1.1-19 24.5-43.6 43.6-43.7 9.4-.1 11.9 3.3 13 17.2 1.1 13.8 5.4 26.5 10 28.9 1.6.9 2.6.8 4.5-.5 2.9-1.9 3-3.5.4-7.7-1.1-1.8-2-3.6-2-4 0-1.6 17-8.9 24-10.4 13.7-2.9 36-.8 49.8 4.8 5.7 2.2 5.6 2.1 3.1 8.6-2.7 6.5 4 10 8.1 4.2 4.3-6 8-20.4 8-31.3 0-5.9 1.1-8.2 5.3-10.8 4.1-2.6 11.5-2 19 1.4zm-54.1 181.6c36.2 9.3 35 31.5-2.1 40.9-10.1 2.5-33.2 2.2-43.6-.7-10.8-2.9-17.6-6.4-21.9-11.1-6-6.6-6-11.3-.1-17.8 5.4-6 17.1-11 31-13.2 8.9-1.4 27.8-.4 36.7 1.9z"/><path d="M190.4 27.5c-1.5 1.5-2.3 3.2-2 4.1.3.9.6 2 .6 2.5s2.9 2.2 6.4 3.8c10.5 4.7 17.5 12.4 20.6 22.6 2.3 7.4 6.7 9.7 10.5 5.5 2.4-2.7 1.6-8.4-2.5-16.7-4-8.1-11.9-16.2-19.6-20-9-4.6-11-4.8-14-1.8zM52.2 31C40.8 36.4 30 49.8 27.5 61.8c-.9 4.4 1.5 8.2 5.4 8.2 3.4 0 5.4-2.2 7-7.9 2.6-9.2 10.2-17.5 20-21.8 3.1-1.4 5.9-3 6.3-3.6 2.3-3.7-.8-8.7-5.3-8.7-1.3 0-5.2 1.3-8.7 3zM80.9 78.3c-1.9 1.2-4.2 3.8-5.2 5.7-4.6 8.8 2.5 20.3 12.6 20.3 14.7 0 19.9-18.7 7.4-26.3-4.4-2.7-10.5-2.6-14.8.3zM168.5 77c-1.1.4-3.3 2.2-4.9 3.9-3.9 4.1-4.7 12-1.7 16.8 7.3 11.7 26.1 6.8 26.3-6.8.1-5.5-2.3-10.4-6.5-12.9-3.3-2.1-9.6-2.5-13.2-1zM68 111.4c-23.6 8.7-35 25.2-25.3 36.6 5.6 6.7 14.5 8.3 22.2 3.9 8-4.5 11.3-14.4 7.6-23.2-2-4.9-1.9-8.3.6-12.4 2.1-3.4 2-6.4-.3-6.2-.7 0-2.9.6-4.8 1.3zM184.4 111.4c-.3.7.4 3.1 1.5 5.2 2.6 4.8 2.6 5.7.1 13-2.2 6.4-2 9.4 1.1 15.6 3.7 7.3 12.3 10.8 20.4 8.4 8.4-2.6 13.6-10.1 11.9-17.3-2-8.7-8.8-15.8-20.4-21.1-10.5-4.9-13.9-5.8-14.6-3.8zM120.5 135.2c-3.3 1.2-8.6 4.6-9.7 6.3-1.4 1.8-.8 5.2 1 6.8 2.4 2.2 5.4 2.1 9.4-.3 5.2-3.1 10.8-3.5 16.3-1.1 2.6 1.2 5.5 2.1 6.5 2.1 2.7 0 5.2-3.5 4.8-6.7-.2-2.3-1.3-3.3-5.7-5.6-4.5-2.2-6.7-2.7-12.5-2.6-3.9 0-8.4.5-10.1 1.1zM122.2 162.1c-5.6 1.1-14.4 5.1-17.1 7.8-2.6 2.6-2.7 6.2-.3 8.4 2.4 2.2 5.8 2.1 9.1-.2 7.7-5.5 21.4-6.5 29.8-2.2 7.3 3.7 12.3 2.5 12.3-3 0-3.4-2.1-5.6-7.5-7.9-8.6-3.7-17.5-4.7-26.3-2.9zM113.5 212.5c-9.3 2-14 4.5-14 7.5 0 2.1.9 2.8 5.6 4.7 12.3 4.9 31.7 5.5 45.1 1.3 10.5-3.2 12.5-6.6 6-9.9-9.1-4.7-29.9-6.4-42.7-3.6z"/></svg>